<svg xmlns="http://www.w3.org/2000/svg" version="1.1" xmlns:xlink="http://www.w3.org/1999/xlink" xmlns:svgjs="http://svgjs.dev/svgjs" width="1000" height="623" viewBox="0 0 1000 623"><g transform="matrix(1,0,0,1,-0.6060606060606233,0.2522267206477409)"><svg viewBox="0 0 396 247" data-background-color="#ffffff" preserveAspectRatio="xMidYMid meet" height="623" width="1000" xmlns="http://www.w3.org/2000/svg" xmlns:xlink="http://www.w3.org/1999/xlink"><g id="tight-bounds" transform="matrix(1,0,0,1,0.2400000000000091,-0.09999999999999432)"><svg viewBox="0 0 395.52 247.2" height="247.2" width="395.52"><g><svg></svg></g><g><svg viewBox="0 0 395.52 247.2" height="247.2" width="395.52"><g><g><path d="M101.443 11.782h194.139l0.822 19.789-196.125 0zM263.376 217.358v18.06h-125.513v-18.06l22.143-1.729 79.151 0z" fill="#0ed0d7" fill-rule="nonzero" stroke="none" stroke-width="1" stroke-linecap="butt" stroke-linejoin="miter" stroke-miterlimit="10" stroke-dasharray="" stroke-dashoffset="0" font-family="none" font-weight="none" font-size="none" text-anchor="none" style="mix-blend-mode: normal" data-fill-palette-color="tertiary"></path></g></g><g transform="matrix(1,0,0,1,95.98925190192747,37.08)"><svg viewBox="0 0 203.54149619614503 173.04" height="173.04" width="203.54149619614503"><g><svg viewBox="0 0 305.304509717362 259.55342447999993" height="173.04" width="203.54149619614503"><g><svg viewBox="0 0 305.304509717362 259.55342447999993" height="259.55342447999993" width="305.304509717362"><g id="textblocktransform"><svg viewBox="0 0 305.304509717362 259.55342447999993" height="259.55342447999993" width="305.304509717362" id="textblock"><g><rect width="305.304509717362" height="173.03999999999996" fill="none" stroke-width="6.31267224" stroke="#0ed0d7" data-fill-palette-color="none" data-stroke-palette-color="tertiary"></rect><rect width="305.304509717362" height="86.51342447999998" y="173.03999999999996" fill="#0ed0d7" data-fill-palette-color="tertiary"></rect></g><g><svg viewBox="0 0 305.304509717362 173.03999999999996" height="173.03999999999996" width="305.304509717362"><g transform="matrix(1,0,0,1,16.52532,16.52532)"><svg width="272.253869717362" viewBox="0.8 -37.15 72.25 37.15" height="139.98935999999998" data-palette-color="#01f6ff"><path d="M14.1-3.5L14.1-33.85 6.95-33.6 5-22.7 0.8-22.7 1.65-37.15 33.9-37.15 34.5-22.7 30.55-22.7 28.6-33.6 21.55-33.85 21.55-3.5 28.55-3 28.55 0 7.7 0 7.7-3 14.1-3.5ZM64.1 0Q63.35 0 62.15-1.93 60.95-3.85 58.8-8.05L58.8-8.05Q56.95-11.65 55.7-13.85 54.45-16.05 53.3-17.5L53.3-17.5 48.85-12.4 48.85-3.5 53.15-2.95 53.15 0 37.6 0 37.6-3 41.55-3.5 41.55-33.4 37.65-34.05 37.65-37.15 52.7-37.15 52.7-34.05 48.85-33.4 48.85-17.1 62-33.4 57.9-34.05 57.9-37.15 71.4-37.15 71.4-34.05 67.25-33.4 57.55-22.5Q59.3-20.9 61.25-17.98 63.2-15.05 66-10.35L66-10.35Q68.05-6.9 69.1-5.33 70.15-3.75 70.7-3.5L70.7-3.5 73.05-2.95 73.05 0 64.1 0Z" opacity="1" transform="matrix(1,0,0,1,0,0)" fill="#01f6ff" class="wordmark-text-0" data-fill-palette-color="primary" id="text-0"></path></svg></g></svg></g></svg></g></svg></g></svg></g></svg></g></svg></g><defs></defs></svg><rect width="395.52" height="247.2" fill="none" stroke="none" visibility="hidden"></rect></g></svg></g></svg>